<svg xmlns="http://www.w3.org/2000/svg" xmlns:xlink="http://www.w3.org/1999/xlink" width="500" zoomAndPan="magnify" viewBox="0 0 375 374.999991" height="500" preserveAspectRatio="xMidYMid meet" version="1.0"><defs><g/><clipPath id="07fdc6e873"><path d="M 108.1875 72.816406 L 267 72.816406 L 267 228.816406 L 108.1875 228.816406 Z M 108.1875 72.816406 " clip-rule="nonzero"/></clipPath></defs><g clip-path="url(#07fdc6e873)"><path fill="#ff3131" d="M 187.5 72.964844 C 143.695312 72.964844 108.1875 108.472656 108.1875 152.277344 C 108.1875 188.464844 132.417969 218.984375 165.539062 228.507812 C 165.71875 227.902344 165.921875 227.289062 166.136719 226.675781 C 168.929688 225.476562 172.144531 224.609375 175.839844 224.300781 C 175.839844 224.300781 172.074219 223.480469 166.917969 224.519531 C 167.589844 222.714844 168.261719 220.890625 168.71875 219.027344 C 180.816406 212.097656 181.984375 200.308594 181.984375 200.308594 C 178.871094 207.746094 173.941406 212.238281 169.269531 214.949219 C 169.296875 212.570312 168.738281 210.121094 167.152344 207.578125 C 163.070312 201.050781 156.035156 198.933594 152.828125 191.414062 C 162.960938 190.710938 167.027344 184.867188 167.027344 184.867188 C 160.46875 190.867188 151 189.976562 151 189.976562 C 141.710938 193.773438 125.78125 188.757812 122.382812 185.65625 C 119.5 183.023438 116.554688 183.230469 115.769531 181.433594 C 110.308594 168.929688 119.371094 159.523438 124.03125 151.855469 C 127.222656 146.605469 129.394531 140.796875 132.265625 138.785156 C 134.492188 137.222656 139.109375 133.300781 141.117188 134.050781 C 144.066406 135.148438 151.199219 139.816406 148.410156 142.902344 C 143.414062 148.421875 146.933594 148.082031 137.617188 147.5 C 135.761719 147.382812 133.636719 147.089844 131.511719 151.753906 C 131.511719 151.753906 132.738281 150.179688 134.554688 149.113281 C 133.582031 150.742188 133.777344 153.011719 133.777344 153.011719 C 136.078125 166.675781 129.175781 175.683594 124.167969 177.007812 C 124.167969 177.007812 128.664062 177.023438 132.335938 171.074219 C 143.082031 164.546875 153.582031 168.121094 157.28125 169.769531 C 151.632812 174.890625 144.066406 175.359375 144.066406 175.359375 C 150.433594 175.992188 154.425781 172.683594 158.679688 170.460938 C 164.273438 167.539062 169.867188 166.722656 173.78125 168.121094 C 180.753906 170.609375 184.609375 177.078125 184.609375 177.078125 C 182.546875 172.785156 179.261719 169.628906 175.984375 167.367188 C 176.78125 165.914062 177.390625 164.441406 177.824219 163.246094 C 173.367188 156.578125 170.78125 142.492188 175.734375 137.207031 C 177.742188 135.058594 182.65625 132.515625 187.5 132.515625 C 192.34375 132.515625 197.1875 135.125 199.265625 137.207031 C 204.113281 142.050781 203.019531 158.117188 195.546875 165.183594 C 196.011719 166.558594 196.671875 167.867188 197.390625 169.046875 C 197.59375 168.984375 197.808594 168.917969 198.03125 168.851562 C 195.585938 171.320312 193.359375 174.421875 192.085938 178.214844 C 192.085938 178.214844 194.855469 170.910156 201.632812 168.054688 C 205.402344 166.46875 210.914062 167.632812 216.316406 170.460938 C 220.574219 172.683594 224.566406 175.992188 230.929688 175.359375 C 230.929688 175.359375 223.363281 174.890625 217.71875 169.769531 C 221.417969 168.121094 231.917969 164.546875 242.664062 171.074219 C 246.335938 177.023438 250.832031 177.007812 250.832031 177.007812 C 245.824219 175.683594 238.921875 166.675781 241.21875 153.011719 C 241.21875 153.011719 241.417969 150.742188 240.445312 149.113281 C 242.261719 150.179688 243.488281 151.753906 243.488281 151.753906 C 241.363281 147.089844 239.238281 147.382812 237.382812 147.5 C 228.066406 148.082031 231.585938 148.421875 226.589844 142.902344 C 223.800781 139.816406 230.929688 135.148438 233.882812 134.050781 C 235.890625 133.300781 240.507812 137.222656 242.734375 138.785156 C 245.605469 140.796875 247.777344 146.605469 250.96875 151.855469 C 255.628906 159.523438 264.691406 168.929688 259.230469 181.433594 C 258.445312 183.230469 255.5 183.023438 252.617188 185.65625 C 249.21875 188.757812 233.285156 193.773438 224 189.976562 C 224 189.976562 214.53125 190.867188 207.972656 184.867188 C 207.972656 184.867188 212.039062 190.710938 222.171875 191.414062 C 218.910156 197.777344 213.542969 201.582031 209.148438 207.578125 C 207.746094 209.492188 206.933594 211.410156 206.519531 213.3125 C 202.667969 210.53125 198.890625 206.410156 196.332031 200.308594 C 196.332031 200.308594 197.273438 209.777344 206.175781 216.730469 C 206.191406 219.347656 206.785156 221.921875 207.488281 224.40625 C 202.640625 223.542969 199.15625 224.300781 199.15625 224.300781 C 202.5 224.582031 205.453125 225.316406 208.054688 226.339844 C 208.292969 227.144531 208.523438 227.929688 208.738281 228.710938 C 242.226562 219.425781 266.8125 188.722656 266.8125 152.277344 C 266.8125 108.472656 231.300781 72.964844 187.5 72.964844 " fill-opacity="1" fill-rule="nonzero"/></g><g fill="#ffffff" fill-opacity="1"><g transform="translate(90.115289, 281.169973)"><g><path d="M 5.328125 0 L 0.5 -39.15625 L 7.96875 -39.15625 L 10.84375 -12.515625 L 13.390625 -39.15625 L 20.859375 -39.15625 L 16.03125 0 Z M 5.328125 0 "/></g></g></g><g fill="#ffffff" fill-opacity="1"><g transform="translate(111.462134, 281.169973)"><g><path d="M 1.359375 0 L 1.359375 -39.109375 L 8.921875 -39.109375 L 8.921875 0 Z M 1.359375 0 "/></g></g></g><g fill="#ffffff" fill-opacity="1"><g transform="translate(121.794192, 281.169973)"><g><path d="M 11.015625 0.359375 C 7.460938 0.359375 4.894531 -0.519531 3.3125 -2.28125 C 1.738281 -4.039062 0.953125 -6.878906 0.953125 -10.796875 L 0.953125 -14.609375 L 8.65625 -14.609375 L 8.65625 -9.75 C 8.65625 -7.800781 9.273438 -6.828125 10.515625 -6.828125 C 11.210938 -6.828125 11.695312 -7.03125 11.96875 -7.4375 C 12.25 -7.851562 12.390625 -8.546875 12.390625 -9.515625 C 12.390625 -10.785156 12.234375 -11.835938 11.921875 -12.671875 C 11.617188 -13.515625 11.234375 -14.21875 10.765625 -14.78125 C 10.296875 -15.34375 9.453125 -16.210938 8.234375 -17.390625 L 4.875 -20.765625 C 2.257812 -23.316406 0.953125 -26.140625 0.953125 -29.234375 C 0.953125 -32.566406 1.71875 -35.101562 3.25 -36.84375 C 4.789062 -38.59375 7.03125 -39.46875 9.96875 -39.46875 C 13.488281 -39.46875 16.019531 -38.535156 17.5625 -36.671875 C 19.113281 -34.804688 19.890625 -31.882812 19.890625 -27.90625 L 11.921875 -27.90625 L 11.890625 -30.59375 C 11.890625 -31.113281 11.742188 -31.523438 11.453125 -31.828125 C 11.160156 -32.128906 10.757812 -32.28125 10.25 -32.28125 C 9.632812 -32.28125 9.175781 -32.113281 8.875 -31.78125 C 8.570312 -31.445312 8.421875 -30.992188 8.421875 -30.421875 C 8.421875 -29.140625 9.148438 -27.816406 10.609375 -26.453125 L 15.15625 -22.078125 C 16.21875 -21.046875 17.097656 -20.066406 17.796875 -19.140625 C 18.492188 -18.210938 19.054688 -17.117188 19.484375 -15.859375 C 19.910156 -14.609375 20.125 -13.117188 20.125 -11.390625 C 20.125 -7.523438 19.414062 -4.597656 18 -2.609375 C 16.59375 -0.628906 14.265625 0.359375 11.015625 0.359375 Z M 11.015625 0.359375 "/></g></g></g><g fill="#ffffff" fill-opacity="1"><g transform="translate(142.77691, 281.169973)"><g><path d="M 1.359375 0 L 1.359375 -39.109375 L 8.921875 -39.109375 L 8.921875 0 Z M 1.359375 0 "/></g></g></g><g fill="#ffffff" fill-opacity="1"><g transform="translate(153.108967, 281.169973)"><g><path d="M 11.0625 0.359375 C 7.90625 0.359375 5.503906 -0.601562 3.859375 -2.53125 C 2.222656 -4.457031 1.40625 -7.164062 1.40625 -10.65625 L 1.40625 -29.28125 C 1.40625 -32.644531 2.222656 -35.179688 3.859375 -36.890625 C 5.503906 -38.609375 7.90625 -39.46875 11.0625 -39.46875 C 14.21875 -39.46875 16.613281 -38.609375 18.25 -36.890625 C 19.894531 -35.179688 20.71875 -32.644531 20.71875 -29.28125 L 20.71875 -10.65625 C 20.71875 -7.132812 19.894531 -4.414062 18.25 -2.5 C 16.613281 -0.59375 14.21875 0.359375 11.0625 0.359375 Z M 11.0625 -6.828125 C 11.757812 -6.828125 12.226562 -7.128906 12.46875 -7.734375 C 12.71875 -8.347656 12.84375 -9.203125 12.84375 -10.296875 L 12.84375 -29.40625 C 12.84375 -30.257812 12.726562 -30.953125 12.5 -31.484375 C 12.269531 -32.015625 11.804688 -32.28125 11.109375 -32.28125 C 9.804688 -32.28125 9.15625 -31.296875 9.15625 -29.328125 L 9.15625 -10.25 C 9.15625 -9.125 9.289062 -8.269531 9.5625 -7.6875 C 9.832031 -7.113281 10.332031 -6.828125 11.0625 -6.828125 Z M 11.0625 -6.828125 "/></g></g></g><g fill="#ffffff" fill-opacity="1"><g transform="translate(175.229571, 281.169973)"><g><path d="M 1.734375 0 L 1.734375 -39.109375 L 9.796875 -39.109375 L 13.390625 -20.390625 L 13.390625 -39.109375 L 20.9375 -39.109375 L 20.9375 0 L 13.296875 0 L 9.375 -19.578125 L 9.375 0 Z M 1.734375 0 "/></g></g></g><g fill="#ffffff" fill-opacity="1"><g transform="translate(197.896367, 281.169973)"><g/></g></g><g fill="#ffffff" fill-opacity="1"><g transform="translate(208.547028, 281.169973)"><g><path d="M 9.796875 0.359375 C 6.972656 0.359375 4.867188 -0.628906 3.484375 -2.609375 C 2.097656 -4.597656 1.40625 -7.613281 1.40625 -11.65625 L 1.40625 -28.5 C 1.40625 -32.113281 2.207031 -34.84375 3.8125 -36.6875 C 5.425781 -38.539062 7.828125 -39.46875 11.015625 -39.46875 C 13.597656 -39.46875 15.601562 -38.953125 17.03125 -37.921875 C 18.457031 -36.890625 19.441406 -35.382812 19.984375 -33.40625 C 20.535156 -31.4375 20.8125 -28.90625 20.8125 -25.8125 L 13.15625 -25.8125 L 13.15625 -29.328125 C 13.15625 -30.265625 13.023438 -30.988281 12.765625 -31.5 C 12.515625 -32.019531 12.054688 -32.28125 11.390625 -32.28125 C 9.898438 -32.28125 9.15625 -31.3125 9.15625 -29.375 L 9.15625 -10.421875 C 9.15625 -9.242188 9.304688 -8.347656 9.609375 -7.734375 C 9.910156 -7.128906 10.441406 -6.828125 11.203125 -6.828125 C 11.960938 -6.828125 12.492188 -7.128906 12.796875 -7.734375 C 13.097656 -8.347656 13.25 -9.242188 13.25 -10.421875 L 13.25 -16.03125 L 11.15625 -16.03125 L 11.15625 -22.765625 L 20.71875 -22.765625 L 20.71875 0 L 17.578125 0 L 16.25 -3.28125 C 14.851562 -0.851562 12.703125 0.359375 9.796875 0.359375 Z M 9.796875 0.359375 "/></g></g></g><g fill="#ffffff" fill-opacity="1"><g transform="translate(230.622119, 281.169973)"><g><path d="M 6.46875 0 L 6.46875 -12.890625 L 0.234375 -39.109375 L 7.96875 -39.109375 L 10.15625 -25.859375 L 12.34375 -39.109375 L 20.078125 -39.109375 L 13.84375 -12.890625 L 13.84375 0 Z M 6.46875 0 "/></g></g></g><g fill="#ffffff" fill-opacity="1"><g transform="translate(250.922105, 281.169973)"><g><path d="M 1.734375 0 L 1.734375 -39.109375 L 13.65625 -39.109375 L 16.9375 -15.25 L 20.21875 -39.109375 L 32.234375 -39.109375 L 32.234375 0 L 25.09375 0 L 25.09375 -28.1875 L 20.578125 0 L 13.5625 0 L 8.78125 -28.1875 L 8.78125 0 Z M 1.734375 0 "/></g></g></g><g fill="#ffffff" fill-opacity="1"><g transform="translate(139.543633, 298.953525)"><g><path d="M 4.394531 -2.285156 L 4.394531 -2.957031 L 0.449219 -2.957031 L 0.449219 -2.285156 Z M 4.394531 -2.285156 "/></g></g></g><g fill="#ffffff" fill-opacity="1"><g transform="translate(146.376282, 298.953525)"><g/></g></g><g fill="#ffffff" fill-opacity="1"><g transform="translate(151.560101, 298.953525)"><g><path d="M 5.644531 0 L 5.644531 -0.765625 L 1.707031 -0.765625 L 1.707031 -3.617188 L 5.527344 -3.617188 L 5.527344 -4.394531 L 1.707031 -4.394531 L 1.707031 -7.246094 L 5.644531 -7.246094 L 5.644531 -8.011719 L 0.882812 -8.011719 L 0.882812 0 Z M 5.644531 0 "/></g></g></g><g fill="#ffffff" fill-opacity="1"><g transform="translate(160.088695, 298.953525)"><g><path d="M 3.097656 -3.769531 C 4.136719 -3.523438 4.84375 -3.253906 5.21875 -2.945312 C 5.480469 -2.734375 5.609375 -2.460938 5.609375 -2.132812 C 5.609375 -1.800781 5.539062 -1.53125 5.394531 -1.34375 C 5.042969 -0.847656 4.40625 -0.601562 3.511719 -0.601562 C 2.261719 -0.601562 1.554688 -1.023438 1.402344 -1.875 L 0.4375 -1.875 C 0.71875 -0.519531 1.742188 0.152344 3.511719 0.152344 C 4.300781 0.152344 4.960938 -0.0117188 5.492188 -0.367188 C 6.125 -0.777344 6.457031 -1.390625 6.457031 -2.191406 C 6.457031 -2.851562 6.199219 -3.359375 5.679688 -3.710938 C 5.3125 -3.96875 4.726562 -4.207031 3.910156 -4.417969 C 3.085938 -4.628906 2.558594 -4.808594 2.308594 -4.9375 C 1.765625 -5.207031 1.496094 -5.585938 1.507812 -6.078125 C 1.507812 -6.339844 1.554688 -6.5625 1.671875 -6.726562 C 1.980469 -7.1875 2.519531 -7.421875 3.300781 -7.421875 C 4.394531 -7.421875 5.019531 -7.070312 5.183594 -6.386719 L 6.078125 -6.386719 C 5.785156 -7.539062 4.855469 -8.128906 3.300781 -8.128906 C 2.59375 -8.128906 1.96875 -7.941406 1.449219 -7.5625 C 0.917969 -7.1875 0.648438 -6.632812 0.648438 -5.878906 C 0.648438 -4.855469 1.472656 -4.148438 3.097656 -3.769531 Z M 3.097656 -3.769531 "/></g></g></g><g fill="#ffffff" fill-opacity="1"><g transform="translate(168.852843, 298.953525)"><g><path d="M 0.234375 -7.269531 L 2.179688 -7.269531 L 2.179688 -0.0234375 L 3.003906 -0.0234375 L 3.003906 -7.269531 L 4.949219 -7.269531 L 4.949219 -8.035156 L 0.234375 -8.035156 Z M 0.234375 -7.269531 "/></g></g></g><g fill="#ffffff" fill-opacity="1"><g transform="translate(176.038817, 298.953525)"><g><path d="M 7.105469 -4.007812 C 7.105469 -4.582031 6.988281 -5.113281 6.773438 -5.609375 C 6.5625 -6.101562 6.269531 -6.527344 5.902344 -6.882812 C 5.527344 -7.234375 5.089844 -7.503906 4.59375 -7.707031 C 4.089844 -7.90625 3.546875 -8.011719 2.980469 -8.011719 L 0.882812 -8.011719 L 0.882812 0 L 2.980469 0 C 3.546875 0 4.089844 -0.09375 4.59375 -0.292969 C 5.089844 -0.496094 5.527344 -0.777344 5.902344 -1.132812 C 6.269531 -1.484375 6.5625 -1.898438 6.773438 -2.390625 C 6.988281 -2.886719 7.105469 -3.417969 7.105469 -4.007812 Z M 6.304688 -4.007812 C 6.304688 -3.085938 5.972656 -2.320312 5.335938 -1.71875 C 4.703125 -1.121094 3.921875 -0.824219 3.003906 -0.824219 L 1.707031 -0.824219 L 1.707031 -7.1875 L 3.003906 -7.1875 C 3.921875 -7.1875 4.703125 -6.882812 5.335938 -6.292969 C 5.972656 -5.679688 6.304688 -4.914062 6.304688 -4.007812 Z M 6.304688 -4.007812 "/></g></g></g><g fill="#ffffff" fill-opacity="1"><g transform="translate(185.67449, 298.953525)"><g/></g></g><g fill="#ffffff" fill-opacity="1"><g transform="translate(190.858308, 298.953525)"><g><path d="M 0.742188 0 L 6.386719 0 L 6.386719 -0.824219 L 2.734375 -0.824219 L 5.527344 -3.59375 C 6.042969 -4.113281 6.304688 -4.738281 6.304688 -5.46875 C 6.304688 -6.210938 6.03125 -6.832031 5.503906 -7.351562 C 4.960938 -7.871094 4.324219 -8.140625 3.59375 -8.140625 C 2.816406 -8.140625 2.167969 -7.859375 1.625 -7.316406 C 1.097656 -6.773438 0.847656 -6.113281 0.882812 -5.347656 L 1.71875 -5.347656 C 1.671875 -5.84375 1.839844 -6.292969 2.214844 -6.703125 C 2.582031 -7.09375 3.027344 -7.292969 3.558594 -7.292969 C 4.066406 -7.292969 4.5 -7.117188 4.867188 -6.761719 C 5.230469 -6.398438 5.421875 -5.972656 5.421875 -5.480469 C 5.421875 -4.960938 5.242188 -4.535156 4.890625 -4.183594 Z M 0.742188 0 "/></g></g></g><g fill="#ffffff" fill-opacity="1"><g transform="translate(200.105328, 298.953525)"><g><path d="M 3.933594 -7.082031 C 4.3125 -6.84375 4.582031 -6.480469 4.773438 -5.984375 C 4.996094 -5.347656 5.113281 -4.6875 5.113281 -3.984375 C 5.113281 -3.816406 5.101562 -3.617188 5.078125 -3.394531 C 4.984375 -2.519531 4.761719 -1.839844 4.394531 -1.355469 C 4.089844 -0.929688 3.722656 -0.730469 3.289062 -0.730469 C 2.792969 -0.730469 2.390625 -0.929688 2.085938 -1.34375 C 1.945312 -1.53125 1.839844 -1.730469 1.742188 -1.96875 C 1.648438 -2.203125 1.589844 -2.4375 1.542969 -2.6875 C 1.496094 -2.921875 1.460938 -3.15625 1.4375 -3.394531 C 1.414062 -3.617188 1.414062 -3.875 1.414062 -4.171875 C 1.414062 -4.464844 1.449219 -4.84375 1.542969 -5.277344 C 1.589844 -5.515625 1.648438 -5.761719 1.742188 -5.996094 C 1.828125 -6.234375 1.933594 -6.445312 2.074219 -6.632812 C 2.214844 -6.820312 2.378906 -6.964844 2.570312 -7.082031 C 2.757812 -7.199219 2.992188 -7.257812 3.253906 -7.257812 C 3.511719 -7.257812 3.746094 -7.199219 3.933594 -7.082031 Z M 3.300781 0.105469 C 4.242188 0.105469 4.949219 -0.351562 5.433594 -1.285156 C 5.808594 -2.027344 6.007812 -2.933594 6.007812 -4.019531 C 6.007812 -5.089844 5.808594 -5.996094 5.433594 -6.738281 C 4.949219 -7.671875 4.242188 -8.140625 3.300781 -8.140625 C 2.34375 -8.140625 1.636719 -7.671875 1.15625 -6.738281 C 0.777344 -5.996094 0.589844 -5.089844 0.589844 -4.019531 C 0.589844 -2.933594 0.777344 -2.027344 1.15625 -1.285156 C 1.636719 -0.351562 2.34375 0.105469 3.300781 0.105469 Z M 3.300781 0.105469 "/></g></g></g><g fill="#ffffff" fill-opacity="1"><g transform="translate(208.70459, 298.953525)"><g><path d="M 4.195312 -0.0820312 C 4.523438 -0.222656 4.808594 -0.414062 5.054688 -0.648438 C 5.585938 -1.167969 5.855469 -1.789062 5.855469 -2.546875 C 5.855469 -3.289062 5.585938 -3.921875 5.042969 -4.441406 C 4.535156 -4.925781 3.898438 -5.195312 3.132812 -5.253906 L 2.78125 -5.042969 L 5.289062 -8.011719 L 0.976562 -8.011719 L 0.976562 -7.1875 L 3.617188 -7.1875 L 1.191406 -4.359375 L 1.816406 -3.851562 C 2.191406 -4.230469 2.640625 -4.417969 3.15625 -4.417969 C 3.675781 -4.417969 4.113281 -4.230469 4.476562 -3.863281 C 4.84375 -3.5 5.03125 -3.0625 5.03125 -2.558594 C 5.03125 -2.050781 4.84375 -1.613281 4.464844 -1.261719 C 4.300781 -1.097656 4.101562 -0.953125 3.875 -0.859375 C 3.640625 -0.765625 3.371094 -0.71875 3.050781 -0.71875 C 2.722656 -0.71875 2.402344 -0.824219 2.085938 -1.035156 C 1.753906 -1.25 1.53125 -1.542969 1.402344 -1.921875 L 0.601562 -1.648438 C 0.777344 -1.121094 1.109375 -0.695312 1.589844 -0.367188 C 1.816406 -0.210938 2.0625 -0.09375 2.332031 -0.0117188 C 2.59375 0.0820312 2.886719 0.117188 3.214844 0.117188 C 3.546875 0.117188 3.863281 0.0585938 4.195312 -0.0820312 Z M 4.195312 -0.0820312 "/></g></g></g><g fill="#ffffff" fill-opacity="1"><g transform="translate(216.832756, 298.953525)"><g><path d="M 3.933594 -7.082031 C 4.3125 -6.84375 4.582031 -6.480469 4.773438 -5.984375 C 4.996094 -5.347656 5.113281 -4.6875 5.113281 -3.984375 C 5.113281 -3.816406 5.101562 -3.617188 5.078125 -3.394531 C 4.984375 -2.519531 4.761719 -1.839844 4.394531 -1.355469 C 4.089844 -0.929688 3.722656 -0.730469 3.289062 -0.730469 C 2.792969 -0.730469 2.390625 -0.929688 2.085938 -1.34375 C 1.945312 -1.53125 1.839844 -1.730469 1.742188 -1.96875 C 1.648438 -2.203125 1.589844 -2.4375 1.542969 -2.6875 C 1.496094 -2.921875 1.460938 -3.15625 1.4375 -3.394531 C 1.414062 -3.617188 1.414062 -3.875 1.414062 -4.171875 C 1.414062 -4.464844 1.449219 -4.84375 1.542969 -5.277344 C 1.589844 -5.515625 1.648438 -5.761719 1.742188 -5.996094 C 1.828125 -6.234375 1.933594 -6.445312 2.074219 -6.632812 C 2.214844 -6.820312 2.378906 -6.964844 2.570312 -7.082031 C 2.757812 -7.199219 2.992188 -7.257812 3.253906 -7.257812 C 3.511719 -7.257812 3.746094 -7.199219 3.933594 -7.082031 Z M 3.300781 0.105469 C 4.242188 0.105469 4.949219 -0.351562 5.433594 -1.285156 C 5.808594 -2.027344 6.007812 -2.933594 6.007812 -4.019531 C 6.007812 -5.089844 5.808594 -5.996094 5.433594 -6.738281 C 4.949219 -7.671875 4.242188 -8.140625 3.300781 -8.140625 C 2.34375 -8.140625 1.636719 -7.671875 1.15625 -6.738281 C 0.777344 -5.996094 0.589844 -5.089844 0.589844 -4.019531 C 0.589844 -2.933594 0.777344 -2.027344 1.15625 -1.285156 C 1.636719 -0.351562 2.34375 0.105469 3.300781 0.105469 Z M 3.300781 0.105469 "/></g></g></g><g fill="#ffffff" fill-opacity="1"><g transform="translate(225.432017, 298.953525)"><g/></g></g><g fill="#ffffff" fill-opacity="1"><g transform="translate(230.615836, 298.953525)"><g><path d="M 4.394531 -2.285156 L 4.394531 -2.957031 L 0.449219 -2.957031 L 0.449219 -2.285156 Z M 4.394531 -2.285156 "/></g></g></g></svg>